<mxfile host="app.diagrams.net" agent="Mozilla/5.0 (Windows NT 10.0; Win64; x64) AppleWebKit/537.36 (KHTML, like Gecko) Chrome/133.0.0.0 Safari/537.36" version="26.1.0">
  <diagram name="Page-1" id="ogZBxYXJFkSqhexbaEGD">
    <mxGraphModel dx="1844" dy="825" grid="0" gridSize="10" guides="1" tooltips="1" connect="1" arrows="1" fold="1" page="0" pageScale="1" pageWidth="850" pageHeight="1100" math="0" shadow="0">
      <root>
        <mxCell id="0" />
        <mxCell id="1" parent="0" />
        <mxCell id="IqY3NNnFkK_Fa4h01Vjv-2" value="&lt;font style=&quot;font-size: 29px;&quot; face=&quot;Nunito&quot;&gt;&lt;font style=&quot;&quot;&gt;&lt;b&gt;User Question:&lt;/b&gt;&amp;nbsp;&lt;/font&gt;What is the average life expectancy in the countries where English is not the official language?&lt;/font&gt;" style="text;html=1;align=center;verticalAlign=middle;whiteSpace=wrap;rounded=0;" parent="1" vertex="1">
          <mxGeometry x="-279" y="373" width="1476" height="70" as="geometry" />
        </mxCell>
        <mxCell id="IqY3NNnFkK_Fa4h01Vjv-4" value="&lt;font face=&quot;Nunito&quot; style=&quot;font-size: 29px;&quot; data-font-src=&quot;https://fonts.googleapis.com/css?family=Nunito&quot;&gt;&lt;b style=&quot;&quot;&gt;&lt;span style=&quot;color: light-dark(rgb(0, 102, 204), rgb(86, 174, 255));&quot; class=&quot;hljs-keyword&quot;&gt;&lt;font&gt;SELECT&lt;/font&gt;&lt;/span&gt; &lt;font style=&quot;&quot;&gt;&lt;span style=&quot;color: light-dark(rgb(0, 102, 204), rgb(86, 174, 255));&quot; class=&quot;hljs-built_in&quot;&gt;AVG&lt;/span&gt;&lt;font style=&quot;color: rgb(0, 0, 0);&quot;&gt;(&lt;/font&gt;&lt;font style=&quot;color: rgb(255, 128, 0);&quot;&gt;life_expectancy&lt;/font&gt;&lt;font style=&quot;color: rgb(0, 0, 0);&quot;&gt;)&amp;nbsp;&lt;/font&gt;&lt;span style=&quot;color: light-dark(rgb(0, 102, 204), rgb(86, 174, 255));&quot; class=&quot;hljs-keyword&quot;&gt;FROM&lt;/span&gt;&lt;font style=&quot;color: rgb(0, 0, 0);&quot;&gt; &lt;/font&gt;&lt;font style=&quot;color: rgb(0, 153, 0);&quot;&gt;country&amp;nbsp;&lt;/font&gt;&lt;/font&gt;&lt;/b&gt;&lt;/font&gt;&lt;div&gt;&lt;font face=&quot;Nunito&quot; style=&quot;font-size: 29px;&quot; data-font-src=&quot;https://fonts.googleapis.com/css?family=Nunito&quot;&gt;&lt;b style=&quot;&quot;&gt;&lt;font style=&quot;&quot;&gt;&lt;span style=&quot;color: light-dark(rgb(0, 102, 204), rgb(86, 174, 255));&quot; class=&quot;hljs-keyword&quot;&gt;WHERE&lt;/span&gt;&lt;font style=&quot;color: rgb(0, 0, 0);&quot;&gt; &lt;/font&gt;&lt;font&gt;&lt;font style=&quot;color: rgb(255, 128, 0);&quot;&gt;name&lt;/font&gt;&lt;font style=&quot;color: rgb(0, 0, 0);&quot;&gt; &lt;/font&gt;&lt;/font&gt;&lt;span style=&quot;color: light-dark(rgb(0, 102, 204), rgb(86, 174, 255));&quot; class=&quot;hljs-keyword&quot;&gt;NOT&lt;/span&gt; &lt;span style=&quot;color: light-dark(rgb(0, 102, 204), rgb(86, 174, 255));&quot; class=&quot;hljs-keyword&quot;&gt;IN&lt;/span&gt; &lt;br&gt;&lt;font style=&quot;color: rgb(0, 0, 0);&quot;&gt;   (&lt;/font&gt;&lt;span style=&quot;color: light-dark(rgb(0, 102, 204), rgb(86, 174, 255));&quot; class=&quot;hljs-keyword&quot;&gt;SELECT&lt;/span&gt;&lt;font style=&quot;color: rgb(0, 0, 0);&quot;&gt; &lt;/font&gt;&lt;font style=&quot;color: rgb(255, 128, 0);&quot;&gt;T1.name&amp;nbsp;&lt;/font&gt;&lt;span style=&quot;color: light-dark(rgb(0, 102, 204), rgb(86, 174, 255));&quot; class=&quot;hljs-keyword&quot;&gt;FROM&lt;/span&gt;&lt;font style=&quot;color: rgb(0, 0, 0);&quot;&gt; &lt;/font&gt;&lt;font style=&quot;color: rgb(0, 153, 0);&quot;&gt;country&lt;/font&gt;&lt;font style=&quot;color: rgb(0, 0, 0);&quot;&gt; &lt;/font&gt;&lt;span style=&quot;color: light-dark(rgb(0, 102, 204), rgb(86, 174, 255));&quot; class=&quot;hljs-keyword&quot;&gt;AS&lt;/span&gt;&lt;font style=&quot;color: rgb(0, 0, 0);&quot;&gt; &lt;/font&gt;&lt;font style=&quot;color: rgb(0, 153, 0);&quot;&gt;T1&lt;/font&gt;&lt;br&gt;    &lt;span style=&quot;color: light-dark(rgb(0, 102, 204), rgb(86, 174, 255));&quot; class=&quot;hljs-keyword&quot;&gt;JOIN&lt;/span&gt;&lt;font style=&quot;color: rgb(0, 0, 0);&quot;&gt; &lt;/font&gt;&lt;font style=&quot;color: rgb(0, 153, 0);&quot;&gt;country_language&lt;/font&gt;&lt;font style=&quot;color: rgb(0, 0, 0);&quot;&gt; &lt;/font&gt;&lt;span style=&quot;color: light-dark(rgb(0, 102, 204), rgb(86, 174, 255));&quot; class=&quot;hljs-keyword&quot;&gt;AS&lt;/span&gt;&lt;font style=&quot;color: rgb(0, 0, 0);&quot;&gt; &lt;/font&gt;&lt;font style=&quot;color: rgb(0, 153, 0);&quot;&gt;T2&lt;/font&gt;&lt;br&gt;    &lt;span style=&quot;color: light-dark(rgb(0, 102, 204), rgb(86, 174, 255));&quot; class=&quot;hljs-keyword&quot;&gt;ON&lt;/span&gt;&lt;font style=&quot;color: rgb(0, 0, 0);&quot;&gt; &lt;/font&gt;&lt;font style=&quot;color: rgb(255, 128, 0);&quot;&gt;T1.code&lt;/font&gt;&lt;font style=&quot;color: rgb(0, 0, 0);&quot;&gt; &lt;/font&gt;&lt;span style=&quot;color: light-dark(rgb(0, 102, 204), rgb(86, 174, 255));&quot; class=&quot;hljs-operator&quot;&gt;=&lt;/span&gt;&lt;font style=&quot;color: rgb(0, 0, 0);&quot;&gt; &lt;/font&gt;&lt;font style=&quot;color: rgb(255, 128, 0);&quot;&gt;T2.country_code&lt;/font&gt;&lt;br&gt;    &lt;span style=&quot;color: light-dark(rgb(0, 102, 204), rgb(86, 174, 255));&quot; class=&quot;hljs-keyword&quot;&gt;WHERE&lt;/span&gt;&lt;font style=&quot;color: rgb(0, 0, 0);&quot;&gt; &lt;/font&gt;&lt;font style=&quot;color: rgb(255, 128, 0);&quot;&gt;T2.language&lt;/font&gt;&lt;font style=&quot;color: rgb(0, 0, 0);&quot;&gt; &lt;/font&gt;&lt;span style=&quot;color: light-dark(rgb(0, 102, 204), rgb(86, 174, 255));&quot; class=&quot;hljs-operator&quot;&gt;=&lt;/span&gt;&lt;font style=&quot;color: rgb(0, 0, 0);&quot;&gt; &lt;/font&gt;&lt;font style=&quot;color: rgb(234, 107, 102);&quot;&gt;&quot;English&quot;&amp;nbsp;&lt;/font&gt;&lt;span style=&quot;color: light-dark(rgb(0, 102, 204), rgb(86, 174, 255));&quot; class=&quot;hljs-keyword&quot;&gt;AND&lt;/span&gt;&lt;font style=&quot;color: rgb(0, 0, 0);&quot;&gt; &lt;/font&gt;&lt;font style=&quot;color: rgb(255, 128, 0);&quot;&gt;T2.is_official&lt;/font&gt;&lt;font style=&quot;color: rgb(0, 0, 0);&quot;&gt; &lt;/font&gt;&lt;span style=&quot;color: light-dark(rgb(0, 102, 204), rgb(86, 174, 255));&quot; class=&quot;hljs-operator&quot;&gt;=&lt;/span&gt;&lt;font style=&quot;color: rgb(0, 0, 0);&quot;&gt; &lt;/font&gt;&lt;font style=&quot;color: rgb(234, 107, 102);&quot;&gt;&quot;T&quot;&lt;/font&gt;&lt;font style=&quot;color: rgb(0, 0, 0);&quot;&gt;);&lt;/font&gt;&lt;/font&gt;&lt;/b&gt;&lt;/font&gt;&lt;/div&gt;" style="text;html=1;align=left;verticalAlign=middle;whiteSpace=wrap;rounded=0;" parent="1" vertex="1">
          <mxGeometry x="-7" y="446" width="845" height="233" as="geometry" />
        </mxCell>
      </root>
    </mxGraphModel>
  </diagram>
</mxfile>
